<svg height="512pt" viewBox="-104 0 512 512" width="512pt" xmlns="http://www.w3.org/2000/svg"><path d="m296.273438 175.292969v302.09375c0 14.96875-12.136719 27.105469-27.109376 27.105469h-217.90625c-5.347656 0-9.683593-4.335938-9.683593-9.683594v-336.949219c0-5.339844 4.335937-9.675781 9.683593-9.675781h217.90625c14.972657 0 27.109376 12.136718 27.109376 27.109375zm0 0" fill="#e0d3ba"/><path d="m262.207031 175.292969v302.09375c0 14.96875-12.136719 27.105469-27.105469 27.105469h-217.910156c-5.347656 0-9.683594-4.335938-9.683594-9.683594v-336.949219c0-5.339844 4.335938-9.675781 9.683594-9.675781h217.910156c14.96875 0 27.105469 12.136718 27.105469 27.109375zm0 0" fill="#6ddca5"/><path d="m38.65625 148.183594h-21.464844c-5.347656 0-9.683594 4.335937-9.683594 9.675781v336.949219c0 5.347656 4.335938 9.683594 9.683594 9.683594h21.464844zm0 0" fill="#52d18f"/><path d="m151.238281 7.511719c48.585938 0 87.96875 39.382812 87.96875 87.96875 0 39.265625-57.453125 86.398437-79.5 103.039062-5.015625 3.789063-11.925781 3.789063-16.941406 0-22.046875-16.640625-79.5-63.773437-79.5-103.039062 0-48.585938 39.382813-87.96875 87.972656-87.96875zm0 0" fill="#e05226"/><path d="m147.394531 95.480469c0-33.347657 18.554688-62.359375 45.90625-77.277344-12.496093-6.816406-26.828125-10.691406-42.0625-10.691406-48.589843 0-87.972656 39.382812-87.972656 87.96875 0 39.265625 57.453125 86.398437 79.5 103.039062 5.015625 3.789063 11.925781 3.789063 16.941406 0 8.011719-6.046875 20.691407-16.117187 33.59375-28.371093-22.613281-21.476563-45.90625-49.667969-45.90625-74.667969zm0 0" fill="#d13a11"/><path d="m151.238281 50.742188c24.703125 0 44.738281 20.027343 44.738281 44.738281 0 24.707031-20.035156 44.734375-44.738281 44.734375-24.707031 0-44.742187-20.027344-44.742187-44.734375 0-24.710938 20.035156-44.738281 44.742187-44.738281zm0 0" fill="#fff"/><path d="m235.5 311.71875c0 45.984375-37.277344 83.265625-83.261719 83.265625s-83.265625-37.28125-83.265625-83.265625 37.28125-83.265625 83.265625-83.265625 83.261719 37.28125 83.261719 83.265625zm0 0" fill="#cde9e9"/><g fill="#96e2f1"><path d="m235.5 311.71875h-43.65625c0-45.984375-17.734375-83.265625-39.605469-83.265625 45.984375 0 83.261719 37.28125 83.261719 83.265625zm0 0"/><path d="m112.632812 311.71875h79.210938c0 45.984375-17.734375 83.265625-39.605469 83.265625-21.871093 0-39.605469-37.28125-39.605469-83.265625zm0 0"/><path d="m152.238281 228.453125c-21.871093 0-39.605469 37.28125-39.605469 83.265625h-43.660156c0-45.984375 37.28125-83.265625 83.265625-83.265625zm0 0"/></g><path d="m230.414062 438.171875v22.929687c0 6.429688-5.207031 11.648438-11.644531 11.648438h-135.066406c-6.4375 0-11.644531-5.21875-11.644531-11.648438v-22.929687c0-6.429687 5.207031-11.644531 11.644531-11.644531h135.066406c6.4375 0 11.644531 5.214844 11.644531 11.644531zm0 0" fill="#e0d3ba"/><path d="m126.839844 456.121094c-16.347656 0-29.597656-13.25-29.597656-29.597656h-13.539063c-6.4375 0-11.644531 5.21875-11.644531 11.648437v22.929687c0 6.429688 5.207031 11.648438 11.644531 11.648438h135.066406c6.4375 0 11.644531-5.21875 11.644531-11.648438v-4.980468zm0 0" fill="#d1c1a7"/><path d="m269.164062 140.675781h-39.792968c10.292968-14.761719 17.347656-30.304687 17.347656-45.195312-.003906-52.648438-42.835938-95.480469-95.480469-95.480469-52.648437 0-95.484375 42.832031-95.484375 95.480469 0 13.597656 5.824219 28.722656 17.359375 45.195312h-55.925781c-9.476562 0-17.1875 7.707031-17.1875 17.1875v336.949219c0 9.476562 7.710938 17.1875 17.1875 17.1875h251.976562c19.089844 0 34.617188-15.527344 34.617188-34.617188v-302.089843c0-19.089844-15.527344-34.617188-34.617188-34.617188zm-53.347656 356.304688h-169.648437v-54.585938c0-4.148437-3.363281-7.511719-7.511719-7.511719s-7.507812 3.363282-7.507812 7.511719v54.585938h-13.960938c-1.195312 0-2.167969-.972657-2.167969-2.167969v-336.949219c0-1.195312.972657-2.167969 2.167969-2.167969h13.957031v252.070313c0 4.148437 3.363281 7.507813 7.511719 7.507813s7.511719-3.359376 7.511719-7.507813v-252.070313h38.726562c4.757813 5.503907 10.085938 11.140626 15.996094 16.90625 2.972656 2.894532 7.726563 2.832032 10.621094-.136718s2.835937-7.722656-.136719-10.621094c-6.460938-6.300781-12.175781-12.425781-17.132812-18.339844-.066407-.082031-.136719-.164062-.207032-.246094-15.289062-18.296874-23.261718-34.578124-23.261718-47.777343 0-44.367188 36.097656-80.460938 80.460937-80.460938 44.367187 0 80.460937 36.09375 80.460937 80.460938 0 29.78125-40.867187 70.664062-79.117187 98.988281-.800781.59375-1.878906.597656-2.683594 0-4.675781-3.460938-11.996093-9.074219-20.335937-16.140625-3.164063-2.679687-7.902344-2.289063-10.585938.875-2.679687 3.164063-2.289062 7.902344.875 10.585937 8.648438 7.328126 16.25 13.15625 21.105469 16.753907 3.074219 2.277343 6.679687 3.414062 10.28125 3.414062 3.605469 0 7.207031-1.140625 10.285156-3.417969 13.746094-10.179687 37.265625-28.949218 56.117188-50.84375h17.46875c10.808593 0 19.597656 8.789063 19.597656 19.59375v302.09375c0 10.804688-8.789063 19.59375-19.597656 19.59375h-19.289063zm72.945313-19.597657c0 10.804688-8.789063 19.597657-19.59375 19.597657h-5.546875c3.84375-5.578125 6.101562-12.328125 6.101562-19.597657v-302.089843c0-7.273438-2.257812-14.023438-6.101562-19.597657h5.546875c10.804687 0 19.59375 8.792969 19.59375 19.597657zm0 0"/><path d="m151.238281 147.730469c28.808594 0 52.246094-23.441407 52.246094-52.25 0-28.808594-23.4375-52.25-52.246094-52.25-28.8125 0-52.25 23.441406-52.25 52.25 0 28.808593 23.4375 52.25 52.25 52.25zm0-89.476563c20.523438 0 37.226563 16.699219 37.226563 37.226563 0 20.527343-16.703125 37.226562-37.226563 37.226562-20.527343 0-37.230469-16.699219-37.230469-37.226562 0-20.527344 16.703126-37.226563 37.230469-37.226563zm0 0"/><path d="m152.238281 402.492188c50.050781 0 90.769531-40.722657 90.769531-90.773438s-40.71875-90.773438-90.769531-90.773438-90.773437 40.722657-90.773437 90.773438 40.71875 90.773438 90.773437 90.773438zm-75.378906-83.261719h28.429687c.835938 20.523437 5.074219 39.683593 12.164063 54.589843 1.171875 2.46875 2.414063 4.789063 3.710937 6.957032-24.140624-10.90625-41.585937-34.085938-44.304687-61.546875zm75.378906-83.261719c14.308594 0 30.15625 27.660156 31.921875 68.242188h-63.84375c1.765625-40.582032 17.609375-68.242188 31.921875-68.242188zm31.921875 83.261719c-1.765625 40.578125-17.613281 68.242187-31.921875 68.242187-14.3125 0-30.15625-27.664062-31.921875-68.242187zm-.851562 61.546875c1.296875-2.171875 2.539062-4.488282 3.710937-6.957032 7.089844-14.90625 11.332031-34.070312 12.164063-54.589843h28.429687c-2.714843 27.460937-20.164062 50.640625-44.304687 61.546875zm44.304687-76.566406h-28.425781c-.835938-20.523438-5.078125-39.683594-12.164062-54.59375-1.175782-2.46875-2.417969-4.789063-3.714844-6.957032 24.140625 10.90625 41.589844 34.085938 44.304687 61.550782zm-106.445312-61.550782c-1.296875 2.171875-2.539063 4.488282-3.714844 6.957032-7.089844 14.90625-11.328125 34.070312-12.164063 54.59375h-28.425781c2.714844-27.464844 20.160157-50.644532 44.304688-61.550782zm0 0"/><path d="m237.929688 438.175781c0-10.566406-8.59375-19.160156-19.160157-19.160156h-26.933593c-4.148438 0-7.507813 3.363281-7.507813 7.507813 0 4.148437 3.359375 7.511718 7.507813 7.511718h26.933593c2.28125 0 4.140625 1.855469 4.140625 4.140625v22.925781c0 2.28125-1.859375 4.136719-4.140625 4.136719h-135.066406c-2.28125 0-4.140625-1.855469-4.140625-4.136719v-22.925781c0-2.285156 1.855469-4.140625 4.140625-4.140625h83.097656c4.152344 0 7.511719-3.363281 7.511719-7.511718 0-4.144532-3.359375-7.507813-7.511719-7.507813h-83.097656c-10.566406 0-19.160156 8.59375-19.160156 19.160156v22.925781c0 10.5625 8.59375 19.160157 19.160156 19.160157h135.066406c10.566407 0 19.160157-8.597657 19.160157-19.160157zm0 0"/></svg>