<?xml version="1.0" encoding="utf-8"?>
<!-- Svg Vector Icons : http://www.onlinewebfonts.com/icon -->
<!DOCTYPE svg PUBLIC "-//W3C//DTD SVG 1.1//EN" "http://www.w3.org/Graphics/SVG/1.1/DTD/svg11.dtd">
<svg version="1.1" xmlns="http://www.w3.org/2000/svg" xmlns:xlink="http://www.w3.org/1999/xlink" x="0px" y="0px" viewBox="0 0 1000 1000" enable-background="new 0 0 1000 1000" xml:space="preserve">
<metadata> Svg Vector Icons : http://www.onlinewebfonts.com/icon </metadata>
<g><path fill="#FFF" d="M412.2,586.1c-7.4,12.6-10,27.6-7.1,42.3c0.3,1.2,13.8,131.7-243.6,246.1c-30.5,13.6-44.2,49.2-30.7,79.7c10,22.5,32.1,35.9,55.2,35.9c8.2,0,16.5-1.7,24.5-5.2C420.4,891.6,492,778.1,515.2,699.5C588.3,733,698.6,805,717.6,938.1c4.7,33,35.3,55.9,68.3,51.3c33-4.8,55.9-35.3,51.2-68.3c-26.9-188.3-173.3-286-270.5-330.8c-0.1-0.2-0.2-0.4-0.3-0.6c-12.8-32-19.8-58.9-23.1-81.1c81,41.1,186.7,60.8,297.6,5.3c29.8-14.9,41.9-51.1,27-81c-14.9-29.8-51.2-41.9-81-27c-147.7,73.9-271.6-66.2-276.7-72c-13.8-16.1-34.9-23.9-55.9-20.4c-89.7,15-259.1,90.2-259.2,268.3c0,33.3,27,60.4,60.4,60.4c33.4,0,60.4-27,60.4-60.4c0-61.8,40.3-99.2,80.2-121.1C394.5,495.5,398.4,537.1,412.2,586.1z M628.6,131.8c0,67.2-54.5,121.8-121.8,121.8c-67.2,0-121.8-54.5-121.8-121.8C385.1,64.5,439.6,10,506.8,10C574.1,10,628.6,64.5,628.6,131.8z"/></g>
</svg>
